 <svg version="1.0" xmlns="http://www.w3.org/2000/svg"  width="300.000000pt" height="188.000000pt" viewBox="0 0 300.000000 188.000000"  preserveAspectRatio="xMidYMid meet">  <g transform="translate(0.000000,188.000000) scale(0.100000,-0.100000)" fill="#000000" stroke="none"> <path d="M945 1281 c-62 -36 -145 -117 -198 -196 -42 -61 -107 -198 -107 -225 0 -8 15 21 33 65 100 242 307 424 417 365 12 -6 20 -26 25 -59 7 -49 35 -94 35 -57 0 11 -5 14 -12 10 -8 -5 -9 3 -5 31 5 32 2 41 -23 66 -39 40 -96 40 -165 0z"/> <path d="M1513 1278 c-6 -7 -15 -26 -20 -43 -10 -29 -12 -30 -61 -27 -49 4 -52 2 -72 -30 -23 -38 -23 -38 -11 -57 8 -12 16 -13 48 -3 20 6 41 8 46 3 8 -8 -40 -143 -68 -191 l-15 -25 7 30 c17 70 -7 116 -61 115 -17 0 -48 3 -69 6 -36 6 -41 3 -82 -40 -24 -26 -54 -72 -66 -101 -17 -42 -25 -52 -35 -44 -16 13 -30 5 -45 -24 -9 -19 -8 -19 10 3 37 45 25 -5 -25 -101 -51 -99 -116 -178 -166 -202 -20 -10 -26 -17 -15 -17 9 0 17 -4 17 -8 0 -5 -22 -8 -50 -6 -27 1 -50 -2 -50 -7 0 -15 95 -10 116 6 19 14 19 14 0 15 -15 0 -17 3 -8 12 8 8 15 8 25 0 17 -14 79 47 129 128 43 69 49 85 36 98 -7 7 -7 16 0 28 8 14 11 9 17 -27 9 -53 23 -82 36 -74 5 4 9 -1 9 -9 0 -18 45 -22 55 -6 4 6 -6 10 -22 10 l-28 0 29 15 c29 16 51 12 40 -7 -4 -6 3 -4 16 5 22 16 24 15 35 -6 6 -12 16 -22 22 -22 17 0 84 56 78 65 -3 5 -1 11 5 15 6 3 13 -2 17 -12 3 -10 13 -22 20 -26 7 -5 11 -12 8 -17 -11 -17 50 2 73 22 12 12 22 17 22 11 0 -6 -7 -16 -15 -23 -8 -7 -15 -17 -15 -23 0 -6 13 2 30 18 16 15 28 33 27 38 -1 6 5 12 13 14 10 2 20 -8 27 -28 11 -29 15 -31 50 -27 21 3 46 8 57 13 14 6 18 5 14 -6 -2 -8 -21 -15 -41 -17 -20 -2 -37 -7 -37 -12 0 -5 13 -8 30 -6 33 4 103 53 95 66 -3 5 -1 11 5 15 5 3 10 -1 10 -9 0 -9 5 -16 10 -16 6 0 9 -4 8 -9 -5 -14 42 -50 57 -44 18 6 30 43 18 52 -6 3 -13 13 -16 21 -4 10 -6 8 -6 -7 -1 -32 -20 -38 -44 -14 -15 15 -20 31 -19 58 l3 37 -36 -46 c-65 -83 -136 -86 -161 -8 -9 27 -12 31 -16 15 -2 -12 -6 -16 -11 -9 -3 6 2 22 13 34 22 25 24 30 13 30 -5 0 -18 -16 -31 -36 -13 -20 -18 -33 -12 -29 8 5 11 3 8 -6 -3 -8 -10 -13 -15 -12 -6 1 -21 -9 -33 -22 -28 -30 -51 -32 -73 -7 -18 20 -33 97 -17 87 6 -4 10 4 10 16 0 12 -1 20 -3 18 -27 -35 -48 -71 -34 -60 9 7 17 9 17 3 0 -5 -7 -15 -15 -22 -8 -7 -15 -9 -15 -5 0 4 -16 -7 -36 -24 -42 -37 -55 -36 -69 7 l-11 32 -34 -36 c-28 -30 -38 -35 -63 -30 -17 3 -32 7 -33 9 -6 6 -11 127 -5 123 4 -3 21 26 39 64 41 89 89 140 130 140 17 0 33 -4 37 -9 3 -5 20 -7 39 -4 40 6 49 -5 51 -63 2 -45 -17 -95 -29 -75 -4 6 0 21 8 33 9 12 16 27 16 33 0 5 -10 -4 -21 -22 -16 -26 -18 -36 -9 -53 9 -17 7 -27 -10 -55 -12 -19 -24 -35 -26 -35 -10 0 -3 30 11 44 8 8 11 17 6 20 -5 4 -19 -19 -30 -49 -25 -67 -27 -82 -7 -66 8 7 12 22 10 34 -2 12 -1 16 2 9 14 -30 115 131 159 253 16 44 32 85 37 91 8 12 -77 3 -89 -9 -3 -4 -12 -2 -19 4 -11 9 -11 16 2 41 15 30 17 30 69 24 l53 -6 14 42 c16 48 26 54 53 34 14 -10 19 -25 18 -55 -1 -23 3 -41 8 -41 6 0 7 9 4 21 -5 15 -4 19 4 15 6 -4 11 -14 11 -23 0 -13 8 -15 45 -10 25 4 57 10 72 13 27 7 27 7 12 -16 -18 -28 -70 -49 -119 -48 l-35 1 35 7 c34 7 34 7 -12 9 -37 1 -49 -3 -58 -18 -15 -30 -11 -39 5 -11 20 36 18 19 -5 -40 -23 -57 -23 -60 -12 -60 4 0 16 22 26 49 l17 48 70 -5 c48 -3 69 -1 69 7 0 6 -8 11 -17 12 -14 0 -15 2 -3 6 8 3 23 12 33 21 10 9 17 10 17 4 0 -6 -4 -14 -10 -17 -15 -9 -12 -25 4 -19 7 3 19 17 25 31 10 21 9 29 -2 40 -12 12 -25 13 -72 4 -77 -14 -75 -15 -75 12 0 26 -26 60 -57 76 -27 14 -28 14 -40 -1z m177 -523 c-13 -14 -20 -25 -16 -25 4 0 4 -5 1 -10 -4 -6 -11 -8 -16 -5 -5 4 3 22 17 41 15 19 29 32 32 29 3 -3 -5 -16 -18 -30z m-688 -34 c-12 -21 -18 -42 -14 -46 4 -5 1 -5 -5 -1 -7 4 -13 2 -13 -4 0 -6 -11 -23 -25 -38 -14 -15 -25 -30 -25 -34 0 -11 -34 -42 -50 -46 -7 -2 9 21 37 51 27 30 62 80 78 110 16 31 32 54 34 51 3 -2 -5 -22 -17 -43z m306 27 c-3 -13 -60 -59 -66 -53 -3 3 59 64 66 65 1 0 1 -6 0 -12z"/> <path d="M1870 1254 c-6 -14 -10 -28 -10 -32 0 -9 -66 -187 -86 -234 -9 -21 -21 -35 -25 -32 -5 3 -6 -3 -3 -13 4 -14 1 -12 -15 6 -16 18 -21 20 -21 7 0 -9 5 -16 10 -16 6 0 10 -5 10 -11 0 -5 -4 -8 -8 -5 -4 2 -14 1 -21 -3 -9 -6 -10 -11 -2 -15 6 -4 11 -3 11 2 0 5 7 9 15 9 8 0 15 -2 15 -3 0 -12 -74 -124 -94 -143 l-26 -24 0 31 c0 18 -4 32 -10 32 -5 0 -10 8 -10 18 0 14 2 15 10 2 11 -18 14 -15 29 29 12 36 6 55 -9 31 -6 -8 -10 -10 -10 -5 0 18 15 31 35 29 11 0 26 5 33 12 10 12 9 14 -5 15 -10 1 -22 1 -26 0 -5 -1 -7 3 -5 9 2 7 7 11 12 10 12 -2 30 30 21 38 -9 10 -33 -23 -63 -88 -33 -70 -40 -170 -11 -170 28 0 93 83 139 177 40 83 112 268 126 326 5 23 11 28 33 25 41 -5 40 -52 -4 -160 -20 -50 -34 -92 -32 -95 2 -2 14 23 27 57 12 33 27 57 32 54 6 -4 6 -9 -1 -14 -7 -4 -13 -17 -14 -28 -1 -12 -5 -22 -9 -22 -4 0 -8 -4 -8 -10 0 -24 18 -7 33 32 12 30 14 45 6 54 -7 9 -7 18 1 31 10 16 10 15 5 -4 -4 -13 -2 -23 3 -23 17 0 23 32 10 48 -11 13 -11 14 0 8 9 -6 11 -1 8 19 -11 62 -77 89 -96 39z"/> <path d="M967 1212 c-66 -70 -136 -176 -183 -277 -54 -116 -39 -101 22 23 31 62 58 111 60 109 2 -2 -20 -53 -50 -113 -58 -116 -72 -154 -59 -154 4 0 18 26 30 58 13 31 43 93 69 137 25 44 47 86 48 93 1 8 9 17 16 22 7 5 15 16 16 26 2 9 21 36 44 59 22 22 37 45 33 50 -5 4 -3 5 4 2 13 -8 43 1 43 14 0 25 -43 2 -93 -49z"/> <path d="M1045 1192 c-1 -54 -39 -146 -76 -182 l-24 -22 23 12 c31 15 84 129 90 191 2 27 1 49 -4 49 -5 0 -9 -21 -9 -48z"/> <path d="M1110 1150 c0 -11 -11 -49 -25 -85 -13 -36 -19 -63 -13 -59 8 5 9 2 5 -9 -3 -10 -3 -17 2 -17 10 0 49 88 58 131 5 25 3 30 -7 24 -9 -5 -10 -2 -5 14 4 12 2 21 -4 21 -6 0 -11 -9 -11 -20z"/> <path d="M1512 1050 c-6 -17 -9 -37 -6 -45 3 -7 1 -22 -6 -32 -10 -16 -10 -15 -6 7 4 19 2 17 -9 -8 -11 -24 -13 -38 -5 -52 7 -14 7 -20 0 -20 -5 0 -10 -4 -10 -10 0 -5 4 -10 9 -10 14 0 51 116 40 127 -6 6 -6 20 1 38 6 15 9 30 6 32 -2 2 -9 -10 -14 -27z"/> <path d="M1645 1054 c-37 -19 -52 -37 -117 -147 -52 -89 -52 -89 -70 -67 -20 25 -24 19 -7 -11 8 -15 7 -24 -2 -35 -9 -12 -9 -13 2 -9 15 6 43 46 97 140 46 79 69 104 117 126 22 10 33 19 25 19 -8 0 -28 -7 -45 -16z"/> <path d="M1713 1031 c4 -18 7 -37 7 -41 0 -4 7 -10 15 -14 11 -4 15 1 15 17 0 18 -2 19 -11 7 -8 -12 -9 -9 -5 11 4 18 0 31 -11 40 -15 13 -16 11 -10 -20z"/> <path d="M1939 1042 c-21 -9 -42 -25 -49 -35 -13 -21 -11 -21 49 20 19 13 46 23 60 23 25 0 26 -3 26 -49 0 -28 -4 -53 -9 -58 -5 -4 -6 3 -2 17 3 14 -5 1 -19 -29 -30 -64 -32 -80 -4 -31 12 21 17 26 14 13 -10 -38 5 -26 25 20 22 48 26 97 8 115 -16 16 -55 14 -99 -6z"/> <path d="M2103 1048 c-5 -7 -15 -33 -22 -56 -7 -24 -26 -66 -43 -93 -30 -49 -43 -63 -32 -34 4 8 2 15 -3 15 -5 0 -9 -10 -10 -21 -1 -12 -10 -30 -19 -40 -9 -11 -12 -19 -6 -19 25 0 132 176 132 218 0 55 54 36 69 -23 13 -51 31 -60 31 -16 0 20 -9 37 -31 55 -34 29 -52 32 -66 14z"/> <path d="M2257 1042 c-3 -4 -15 -36 -27 -72 -29 -85 -81 -183 -92 -172 -5 5 -2 21 6 37 8 16 13 32 10 37 -3 4 0 8 7 8 8 0 8 4 -1 15 -7 9 -10 18 -6 22 3 3 6 1 6 -5 0 -18 17 -14 24 4 4 9 1 23 -6 31 -10 12 -13 11 -24 -9 -7 -13 -11 -31 -7 -42 3 -11 1 -16 -5 -12 -7 4 -19 -19 -32 -60 -22 -74 -25 -94 -10 -94 5 0 7 6 5 13 -3 6 -1 26 4 42 7 25 10 27 16 12 4 -10 2 -24 -5 -32 -11 -13 -10 -14 2 -10 28 11 104 155 128 245 10 37 14 41 38 38 39 -4 40 -47 2 -135 -31 -74 -38 -100 -19 -73 8 11 9 9 3 -10 -10 -37 -26 -62 -20 -30 5 22 4 21 -9 -5 -7 -16 -11 -38 -8 -49 3 -11 1 -16 -5 -12 -13 8 -30 -49 -28 -94 3 -44 -5 -60 -15 -34 -6 12 -7 4 -4 -21 4 -29 3 -35 -4 -20 -6 14 -7 1 -4 -37 5 -49 3 -58 -11 -58 -9 0 -16 -4 -16 -10 0 -14 16 -12 27 3 18 23 53 191 42 197 -6 4 -7 18 -3 34 5 20 9 24 15 15 11 -18 14 -14 43 66 18 49 22 73 15 82 -7 8 -7 18 1 30 10 16 10 15 5 -4 -4 -13 -2 -23 3 -23 16 0 23 32 11 46 -9 11 -9 13 3 9 9 -4 19 4 26 20 19 41 14 79 -11 103 -23 22 -61 29 -70 14z"/> <path d="M1215 979 c-52 -62 -77 -139 -46 -139 13 0 31 49 21 55 -6 4 -10 11 -10 17 0 6 7 5 17 -3 11 -10 14 -10 9 -1 -4 6 -3 12 3 12 5 0 8 11 5 24 -2 14 0 28 6 31 5 3 10 -3 10 -14 0 -11 4 -22 9 -25 5 -3 9 12 9 34 0 22 -1 40 -3 40 -2 0 -15 -14 -30 -31z"/> <path d="M1929 998 c0 -2 -2 -12 -3 -24 -3 -30 -32 -68 -41 -54 -4 6 -1 19 7 29 7 9 0 3 -15 -13 -43 -48 -92 -153 -78 -169 6 -8 8 -17 4 -20 -3 -4 -2 -7 3 -7 12 0 54 110 42 110 -5 0 -18 -19 -28 -42 -11 -24 -17 -32 -14 -18 8 31 42 100 50 100 3 0 4 -7 0 -15 -3 -8 -1 -15 3 -15 5 0 12 8 15 17 5 13 9 14 15 5 5 -8 17 8 34 46 15 32 27 61 27 65 0 6 -19 10 -21 5z"/> <path d="M1020 964 c-45 -32 -47 -39 -12 -42 19 -1 36 6 52 23 13 14 18 25 11 25 -6 0 -14 -7 -17 -15 -4 -8 -15 -15 -26 -15 -17 0 -16 3 9 25 35 31 28 30 -17 -1z"/> <path d="M1205 857 c-16 -33 -31 -53 -34 -46 -5 15 -31 44 -31 34 0 -3 5 -15 10 -26 8 -13 7 -26 -1 -41 l-12 -23 25 23 c27 25 82 118 76 130 -2 4 -16 -19 -33 -51z"/> <path d="M1861 805 c-31 -83 -26 -131 16 -141 30 -8 73 13 73 35 0 13 -4 12 -18 -5 -13 -16 -23 -19 -47 -13 -16 3 -23 7 -15 8 12 1 12 4 -2 12 -23 13 -23 37 2 101 11 28 18 54 16 56 -2 2 -13 -22 -25 -53z"/> <path d="M1936 800 c-20 -51 -21 -67 -2 -50 8 6 12 18 10 25 -3 7 0 23 6 35 6 12 10 24 7 26 -2 3 -12 -13 -21 -36z"/> <path d="M1426 806 c-3 -14 -3 -32 1 -42 4 -12 3 -15 -5 -10 -8 4 -12 0 -12 -10 0 -37 24 6 26 46 2 46 -1 51 -10 16z"/> <path d="M1983 781 c-21 -27 -50 -57 -65 -67 -15 -10 -25 -20 -23 -23 3 -2 14 4 25 14 15 14 23 15 33 6 11 -9 17 -8 26 2 6 8 8 17 5 20 -4 3 5 12 19 18 21 9 26 18 23 40 -2 16 2 30 8 33 8 3 7 5 -1 5 -6 1 -29 -21 -50 -48z m27 4 c-7 -8 -9 -15 -4 -15 5 0 -2 -7 -14 -16 -12 -8 -20 -19 -18 -23 3 -4 -1 -8 -9 -8 -16 0 -12 8 24 54 14 18 27 30 30 28 2 -3 -2 -11 -9 -20z"/> <path d="M726 785 c-8 -30 0 -65 15 -65 12 0 12 27 -1 35 -5 3 -10 12 -10 18 0 7 4 6 10 -3 5 -8 12 -11 15 -8 4 4 0 16 -8 28 -15 21 -15 21 -21 -5z"/> <path d="M622 729 c-1 -42 3 -91 10 -110 12 -38 45 -89 56 -88 22 3 32 -2 26 -13 -5 -8 -1 -8 10 1 16 13 16 15 1 23 -9 5 -21 8 -28 5 -12 -4 -38 24 -52 58 -5 11 -11 61 -15 110 l-7 90 -1 -76z"/> <path d="M956 755 c-15 -24 -52 -72 -82 -105 -45 -48 -62 -60 -86 -60 -21 0 -31 6 -35 20 -3 11 -9 20 -14 20 -5 0 -9 12 -8 28 1 15 -4 38 -10 52 -10 21 -11 16 -8 -34 3 -47 9 -63 27 -78 29 -24 65 -23 100 2 30 21 111 124 136 172 23 44 9 32 -20 -17z"/> <path d="M2122 730 c-34 -32 -50 -31 -86 6 -12 11 -16 12 -16 2 0 -18 17 -43 30 -44 5 -1 16 -2 23 -3 8 -1 7 -4 -3 -11 -12 -7 -8 -10 15 -10 22 0 26 3 18 11 -9 9 -5 17 15 33 15 12 30 20 34 19 5 -2 8 4 8 12 0 19 1 20 -38 -15z"/> <path d="M2133 708 c-24 -31 -41 -189 -24 -217 6 -8 7 3 4 31 -3 24 1 71 8 104 7 32 13 61 14 64 0 3 4 11 8 18 5 6 6 12 4 12 -3 0 -9 -6 -14 -12z"/> <path d="M2161 504 c-1 -13 -10 -24 -22 -27 -13 -4 -18 -10 -14 -17 11 -18 48 23 42 46 -4 17 -5 16 -6 -2z"/> </g> </svg> 